<svg width="20.000000" height="20.000000" viewBox="0 0 20 20" fill="none" xmlns="http://www.w3.org/2000/svg" xmlns:xlink="http://www.w3.org/1999/xlink">
	<desc>
			Created with Pixso.
	</desc>
	<defs/>
	<path id="Icon (Stroke)" d="M6 0C6.55 0 7 0.44 7 1L7 2L13 2L13 1C13 0.44 13.44 0 14 0C14.55 0 15 0.44 15 1L15 2L17 2C18.65 2 20 3.34 20 5L20 17C20 18.65 18.65 20 17 20L3 20C1.34 20 0 18.65 0 17L0 5C0 3.34 1.34 2 3 2L5 2L5 1C5 0.44 5.44 0 6 0ZM5 4L3 4C2.44 4 2 4.44 2 5L2 17C2 17.55 2.44 18 3 18L17 18C17.55 18 18 17.55 18 17L18 5C18 4.44 17.55 4 17 4L15 4L15 5C15 5.55 14.55 6 14 6C13.44 6 13 5.55 13 5L13 4L7 4L7 5C7 5.55 6.55 6 6 6C5.44 6 5 5.55 5 5L5 4ZM4 9C4 8.44 4.44 8 5 8L15 8C15.55 8 16 8.44 16 9C16 9.55 15.55 10 15 10L5 10C4.44 10 4 9.55 4 9Z" fill="#7F808B" fill-opacity="1.000000" fill-rule="evenodd"/>
</svg>
