<svg width="24.000000" height="24.000000" viewBox="0 0 24 24" fill="none" xmlns="http://www.w3.org/2000/svg" xmlns:xlink="http://www.w3.org/1999/xlink">
	<desc>
			Created with Pixso.
	</desc>
	<defs>
		<clipPath id="clip2775_14468">
			<rect id="UIIcons" rx="-1.000000" width="22.000000" height="22.000000" transform="translate(1.000000 1.000000)" fill="white" fill-opacity="0"/>
		</clipPath>
	</defs>
	<g clip-path="url(#clip2775_14468)">
		<path id="Icon" d="M19.51 5.57C18.82 4.82 17.58 4.77 16.75 5.6L8.65 13.7C8.44 13.91 8.44 14.18 8.65 14.39C8.86 14.6 9.13 14.6 9.34 14.39L16.04 7.69C16.43 7.3 17.06 7.3 17.45 7.69C17.84 8.08 17.84 8.71 17.45 9.1L10.75 15.8C9.76 16.79 8.23 16.79 7.24 15.8C6.25 14.81 6.25 13.28 7.24 12.29L15.34 4.19C16.91 2.62 19.45 2.57 20.97 4.2C22.52 5.77 22.57 8.31 20.94 9.82L11.45 19.3C9.26 21.49 5.83 21.49 3.64 19.3C1.45 17.11 1.45 13.68 3.64 11.49L11.74 3.39C12.13 3 12.76 3 13.15 3.39C13.54 3.78 13.54 4.41 13.15 4.8L5.05 12.9C3.64 14.31 3.64 16.48 5.05 17.89C6.46 19.3 8.63 19.3 10.04 17.89L19.54 8.39C19.55 8.38 19.56 8.37 19.57 8.36C20.32 7.67 20.37 6.43 19.54 5.6C19.53 5.59 19.52 5.58 19.51 5.57Z" fill="#282B40" fill-opacity="1.000000" fill-rule="evenodd"/>
	</g>
</svg>
