<svg width="16.000000" height="16.000000" viewBox="0 0 16 16" fill="none" xmlns="http://www.w3.org/2000/svg" xmlns:xlink="http://www.w3.org/1999/xlink">
	<desc>
			Created with Pixso.
	</desc>
	<defs/>
	<path id="Icon" d="M8 16C12.41 16 16 12.41 16 8C16 3.58 12.41 0 8 0C3.58 0 0 3.58 0 8C0 12.41 3.58 16 8 16ZM6.7 5.29C6.31 4.9 5.68 4.9 5.29 5.29C4.9 5.68 4.9 6.31 5.29 6.7L6.58 8L5.29 9.29C4.9 9.68 4.9 10.31 5.29 10.7C5.68 11.09 6.31 11.09 6.7 10.7L8 9.41L9.29 10.7C9.68 11.09 10.31 11.09 10.7 10.7C11.09 10.31 11.09 9.68 10.7 9.29L9.41 8L10.7 6.7C11.09 6.31 11.09 5.68 10.7 5.29C10.31 4.9 9.68 4.9 9.29 5.29L8 6.58L6.7 5.29Z" fill="#9A273B" fill-opacity="1.000000" fill-rule="evenodd"/>
</svg>
