<svg width="34" height="34" viewBox="0 0 34 34" fill="none" xmlns="http://www.w3.org/2000/svg">
<path fill-rule="evenodd" clip-rule="evenodd" d="M17.1947 33.7205C26.3381 33.7205 33.7503 26.3083 33.7503 17.1649C33.7503 8.02155 26.3381 0.609375 17.1947 0.609375C8.05134 0.609375 0.63916 8.02155 0.63916 17.1649C0.63916 26.3083 8.05134 33.7205 17.1947 33.7205ZM24.8664 14.4894C25.6745 13.6812 25.6745 12.3709 24.8664 11.5627C24.0582 10.7546 22.7479 10.7546 21.9397 11.5627L15.1253 18.3772L12.4497 15.7016C11.6415 14.8934 10.3312 14.8934 9.52306 15.7016C8.7149 16.5098 8.7149 17.8201 9.52306 18.6282L13.662 22.7671C14.4701 23.5753 15.7804 23.5753 16.5886 22.7671L24.8664 14.4894Z" fill="#111827"/>
<path fill-rule="evenodd" clip-rule="evenodd" d="M17.1947 33.7205C26.3381 33.7205 33.7503 26.3083 33.7503 17.1649C33.7503 8.02155 26.3381 0.609375 17.1947 0.609375C8.05134 0.609375 0.63916 8.02155 0.63916 17.1649C0.63916 26.3083 8.05134 33.7205 17.1947 33.7205ZM24.8664 14.4894C25.6745 13.6812 25.6745 12.3709 24.8664 11.5627C24.0582 10.7546 22.7479 10.7546 21.9397 11.5627L15.1253 18.3772L12.4497 15.7016C11.6415 14.8934 10.3312 14.8934 9.52306 15.7016C8.7149 16.5098 8.7149 17.8201 9.52306 18.6282L13.662 22.7671C14.4701 23.5753 15.7804 23.5753 16.5886 22.7671L24.8664 14.4894Z" fill="url(#paint0_linear_3254_3324)"/>
<defs>
<linearGradient id="paint0_linear_3254_3324" x1="0.782953" y1="19.0899" x2="33.5395" y2="19.0899" gradientUnits="userSpaceOnUse">
<stop stop-color="#95FF84"/>
<stop offset="1" stop-color="#69EA9D"/>
</linearGradient>
</defs>
</svg>
