<svg width="153" height="40" viewBox="0 0 153 40" fill="none" xmlns="http://www.w3.org/2000/svg">
<rect width="18.8558" height="18.8558" rx="2.15495" transform="matrix(0.707113 0.707101 -0.707113 0.707101 15.0576 13.334)" fill="url(#paint0_linear_3358_3543)"/>
<mask id="mask0_3358_3543" style="mask-type:alpha" maskUnits="userSpaceOnUse" x="2" y="0" width="26" height="25">
<path d="M13.5338 1.52377C14.3754 0.682214 15.7398 0.682213 16.5814 1.52376L26.867 11.8092C27.7086 12.6507 27.7086 14.0152 26.867 14.8567L18.1052 23.6184C16.4221 25.3015 13.6932 25.3015 12.01 23.6184L3.24823 14.8567C2.40667 14.0152 2.40667 12.6507 3.24823 11.8092L13.5338 1.52377Z" fill="url(#paint1_linear_3358_3543)"/>
</mask>
<g mask="url(#mask0_3358_3543)">
<path d="M13.5338 1.52377C14.3754 0.682214 15.7398 0.682213 16.5814 1.52376L26.867 11.8092C27.7086 12.6507 27.7086 14.0152 26.867 14.8567L18.1052 23.6184C16.4221 25.3015 13.6932 25.3015 12.01 23.6184L3.24823 14.8567C2.40667 14.0152 2.40667 12.6507 3.24823 11.8092L13.5338 1.52377Z" fill="url(#paint2_linear_3358_3543)"/>
</g>
<mask id="mask1_3358_3543" style="mask-type:alpha" maskUnits="userSpaceOnUse" x="2" y="11" width="26" height="18">
<path d="M3.11886 14.7282C1.96793 13.5773 2.78305 11.6094 4.41071 11.6094H10.7902C12.4189 11.6094 13.9808 12.2564 15.1325 13.408L26.9667 25.2421C28.1782 26.4536 27.3202 28.525 25.6069 28.525H19.4595C17.8308 28.525 16.2689 27.8781 15.1172 26.7264L3.11886 14.7282Z" fill="url(#paint3_linear_3358_3543)"/>
</mask>
<g mask="url(#mask1_3358_3543)">
<path d="M3.11886 14.7282C1.96793 13.5773 2.78305 11.6094 4.41071 11.6094H10.7902C12.4189 11.6094 13.9808 12.2564 15.1325 13.408L26.9667 25.2421C28.1782 26.4536 27.3202 28.525 25.6069 28.525H19.4595C17.8308 28.525 16.2689 27.8781 15.1172 26.7264L3.11886 14.7282Z" fill="url(#paint4_linear_3358_3543)"/>
</g>
<path d="M151.325 14.8691H152.64V25.3478H151.345V17.0605L147.101 24.0728H146.464L142.221 17.0406V25.3478H140.926V14.8691H142.36L146.803 22.4194L151.325 14.8691Z" fill="#282B40"/>
<path d="M132.569 13.3749C130.796 13.3749 129.641 12.4586 129.601 10.7852H130.617C130.637 11.841 131.434 12.4984 132.569 12.4984C133.705 12.4984 134.502 11.841 134.542 10.7852H135.558C135.518 12.4586 134.342 13.3749 132.569 13.3749ZM127.808 25.3477V14.869H129.223V23.1962L136.215 14.869H137.47V25.3477H136.056V17.0206L129.083 25.3477H127.808Z" fill="#282B40"/>
<path d="M120.397 14.791C123.106 14.791 124.64 16.1457 124.64 18.855V25.3494H123.286V23.7158C122.648 24.7916 121.413 25.449 119.68 25.449C117.309 25.449 115.855 24.2139 115.855 22.401C115.855 20.7874 116.891 19.4327 119.899 19.4327H123.226V18.7952C123.226 17.0023 122.21 16.0261 120.258 16.0261C118.903 16.0261 117.628 16.5043 116.771 17.2613L116.134 16.2054C117.19 15.309 118.744 14.791 120.397 14.791ZM119.899 24.3334C121.493 24.3334 122.668 23.5764 123.226 22.2018V20.4885H119.939C117.907 20.4885 117.249 21.2854 117.249 22.3612C117.249 23.5764 118.226 24.3334 119.899 24.3334Z" fill="#282B40"/>
<path d="M111.119 18.0581C112.952 18.5162 114.067 19.7514 114.067 21.4447C114.067 23.9747 111.477 25.4688 108.569 25.4688C106.796 25.4688 104.883 24.911 103.409 23.6759L103.947 22.6201C105.202 23.6958 106.876 24.2138 108.409 24.2138C110.641 24.2138 112.593 23.138 112.593 21.2455C112.593 19.6119 111.238 18.7155 108.947 18.7155H105.959V17.5202H108.868C110.84 17.5202 111.995 16.6436 111.995 15.1495C111.995 13.4562 110.322 12.5 108.29 12.5C107.015 12.5 105.601 12.8586 104.345 13.6554L103.847 12.4402C105.282 11.5836 106.856 11.2051 108.33 11.2051C111.119 11.2051 113.47 12.5996 113.47 14.9902C113.47 16.4843 112.593 17.5999 111.119 18.0581Z" fill="#282B40"/>
<path d="M98.6605 14.8691V16.1242H94.6962V25.3478H93.2817V16.1242H89.3174V14.8691H98.6605Z" fill="#282B40"/>
<path d="M84.0179 14.791C87.0061 14.791 89.2373 16.9425 89.2373 20.11C89.2373 23.2975 87.0061 25.449 84.0179 25.449C82.3445 25.449 80.9101 24.7318 80.0336 23.3772V29.2141H78.6191V14.8707H79.9738V16.9425C80.8304 15.548 82.2847 14.791 84.0179 14.791ZM83.9182 24.1939C86.1295 24.1939 87.8228 22.5604 87.8228 20.11C87.8228 17.6796 86.1295 16.0261 83.9182 16.0261C81.687 16.0261 80.0136 17.6796 80.0136 20.11C80.0136 22.5604 81.687 24.1939 83.9182 24.1939Z" fill="#282B40"/>
<path d="M71.2081 14.791C73.9174 14.791 75.4514 16.1457 75.4514 18.855V25.3494H74.0967V23.7158C73.4592 24.7916 72.2241 25.449 70.4909 25.449C68.1203 25.449 66.666 24.2139 66.666 22.401C66.666 20.7874 67.7019 19.4327 70.7101 19.4327H74.0369V18.7952C74.0369 17.0023 73.021 16.0261 71.0687 16.0261C69.714 16.0261 68.439 16.5043 67.5824 17.2613L66.9449 16.2054C68.0008 15.309 69.5546 14.791 71.2081 14.791ZM70.7101 24.3334C72.3038 24.3334 73.4791 23.5764 74.0369 22.2018V20.4885H70.7499C68.7179 20.4885 68.0605 21.2854 68.0605 22.3612C68.0605 23.5764 69.0367 24.3334 70.7101 24.3334Z" fill="#282B40"/>
<path d="M62.8604 14.8691H64.1752V25.3478H62.8803V17.0605L58.6371 24.0728H57.9996L53.7563 17.0406V25.3478H52.4614V14.8691H53.8958L58.3382 22.4194L62.8604 14.8691Z" fill="#282B40"/>
<path d="M45.2336 25.4673C41.0501 25.4673 37.9424 22.4591 37.9424 18.3752C37.9424 14.2913 41.0501 11.2832 45.2535 11.2832C47.2855 11.2832 49.1183 11.9605 50.3534 13.3152L49.4171 14.2515C48.2816 13.0961 46.8871 12.598 45.2934 12.598C41.9267 12.598 39.3966 15.0683 39.3966 18.3752C39.3966 21.6822 41.9267 24.1525 45.2934 24.1525C46.8871 24.1525 48.2816 23.6544 49.4171 22.479L50.3534 23.4154C49.1183 24.77 47.2855 25.4673 45.2336 25.4673Z" fill="#282B40"/>
<defs>
<linearGradient id="paint0_linear_3358_3543" x1="18.8558" y1="9.42798" x2="-1.85264e-07" y2="9.42814" gradientUnits="userSpaceOnUse">
<stop stop-color="#19AF44"/>
<stop offset="0.9" stop-color="#66FF92" stop-opacity="0"/>
</linearGradient>
<linearGradient id="paint1_linear_3358_3543" x1="8.39109" y1="6.66641" x2="21.7241" y2="19.9995" gradientUnits="userSpaceOnUse">
<stop offset="0.15" stop-color="white"/>
<stop offset="0.85" stop-color="white" stop-opacity="0"/>
</linearGradient>
<linearGradient id="paint2_linear_3358_3543" x1="21.5963" y1="19.3914" x2="8.39109" y2="6.66641" gradientUnits="userSpaceOnUse">
<stop offset="0.1" stop-color="#9000FF"/>
<stop offset="0.438863" stop-color="#9000FF"/>
<stop offset="1" stop-color="#44BCFF"/>
</linearGradient>
<linearGradient id="paint3_linear_3358_3543" x1="14.4234" y1="13.1419" x2="15.8657" y2="27.0845" gradientUnits="userSpaceOnUse">
<stop stop-color="white" stop-opacity="0"/>
<stop offset="0.482027" stop-color="white"/>
<stop offset="1" stop-color="white" stop-opacity="0"/>
</linearGradient>
<linearGradient id="paint4_linear_3358_3543" x1="7.01262" y1="12.1803" x2="22.6647" y2="28.5777" gradientUnits="userSpaceOnUse">
<stop stop-color="#69EAD6" stop-opacity="0"/>
<stop offset="0.297561" stop-color="#54DAAD" stop-opacity="0.6"/>
<stop offset="0.699014" stop-color="#37C476" stop-opacity="0.6"/>
<stop offset="1" stop-color="#22B44C" stop-opacity="0"/>
</linearGradient>
</defs>
</svg>
