<svg width="153" height="40" viewBox="0 0 153 40" fill="none" xmlns="http://www.w3.org/2000/svg">
<rect width="18.8558" height="18.8558" rx="2.15495" transform="matrix(0.707113 0.707101 -0.707113 0.707101 15.2379 13.334)" fill="url(#paint0_linear_2966_2165)"/>
<mask id="mask0_2966_2165" style="mask-type:alpha" maskUnits="userSpaceOnUse" x="2" y="0" width="26" height="25">
<path d="M13.714 1.52377C14.5556 0.682214 15.92 0.682213 16.7616 1.52376L27.0472 11.8092C27.8887 12.6507 27.8887 14.0152 27.0472 14.8567L18.2854 23.6184C16.6022 25.3015 13.8733 25.3015 12.1902 23.6184L3.42841 14.8567C2.58684 14.0152 2.58684 12.6507 3.42841 11.8092L13.714 1.52377Z" fill="url(#paint1_linear_2966_2165)"/>
</mask>
<g mask="url(#mask0_2966_2165)">
<path d="M13.714 1.52377C14.5556 0.682214 15.92 0.682213 16.7616 1.52376L27.0472 11.8092C27.8887 12.6507 27.8887 14.0152 27.0472 14.8567L18.2854 23.6184C16.6022 25.3015 13.8733 25.3015 12.1902 23.6184L3.42841 14.8567C2.58684 14.0152 2.58684 12.6507 3.42841 11.8092L13.714 1.52377Z" fill="url(#paint2_linear_2966_2165)"/>
</g>
<mask id="mask1_2966_2165" style="mask-type:alpha" maskUnits="userSpaceOnUse" x="2" y="11" width="26" height="18">
<path d="M3.29916 14.7282C2.14823 13.5773 2.96335 11.6094 4.59101 11.6094H10.9705C12.5992 11.6094 14.1611 12.2564 15.3128 13.408L27.147 25.2421C28.3585 26.4536 27.5005 28.525 25.7871 28.525H19.6398C18.0111 28.525 16.4492 27.8781 15.2975 26.7264L3.29916 14.7282Z" fill="url(#paint3_linear_2966_2165)"/>
</mask>
<g mask="url(#mask1_2966_2165)">
<path d="M3.29916 14.7282C2.14823 13.5773 2.96335 11.6094 4.59101 11.6094H10.9705C12.5992 11.6094 14.1611 12.2564 15.3128 13.408L27.147 25.2421C28.3585 26.4536 27.5005 28.525 25.7871 28.525H19.6398C18.0111 28.525 16.4492 27.8781 15.2975 26.7264L3.29916 14.7282Z" fill="url(#paint4_linear_2966_2165)"/>
</g>
<path d="M151.505 14.8701H152.82V25.3488H151.525V17.0615L147.282 24.0738H146.644L142.401 17.0416V25.3488H141.106V14.8701H142.54L146.983 22.4203L151.505 14.8701Z" fill="#282B40"/>
<path d="M132.749 13.3759C130.976 13.3759 129.821 12.4595 129.781 10.7861H130.797C130.817 11.842 131.614 12.4994 132.749 12.4994C133.885 12.4994 134.682 11.842 134.722 10.7861H135.738C135.698 12.4595 134.522 13.3759 132.749 13.3759ZM127.988 25.3487V14.87H129.403V23.1972L136.395 14.87H137.65V25.3487H136.236V17.0215L129.263 25.3487H127.988Z" fill="#282B40"/>
<path d="M120.577 14.791C123.287 14.791 124.821 16.1457 124.821 18.855V25.3494H123.466V23.7158C122.828 24.7916 121.593 25.449 119.86 25.449C117.489 25.449 116.035 24.2139 116.035 22.401C116.035 20.7874 117.071 19.4327 120.079 19.4327H123.406V18.7952C123.406 17.0023 122.39 16.0261 120.438 16.0261C119.083 16.0261 117.808 16.5043 116.952 17.2613L116.314 16.2054C117.37 15.309 118.924 14.791 120.577 14.791ZM120.079 24.3334C121.673 24.3334 122.848 23.5764 123.406 22.2018V20.4885H120.119C118.087 20.4885 117.43 21.2854 117.43 22.3612C117.43 23.5764 118.406 24.3334 120.079 24.3334Z" fill="#282B40"/>
<path d="M111.299 18.0581C113.132 18.5162 114.247 19.7514 114.247 21.4447C114.247 23.9747 111.658 25.4688 108.749 25.4688C106.976 25.4688 105.064 24.911 103.589 23.6759L104.127 22.6201C105.382 23.6958 107.056 24.2138 108.59 24.2138C110.821 24.2138 112.773 23.138 112.773 21.2455C112.773 19.6119 111.419 18.7155 109.128 18.7155H106.139V17.5202H109.048C111.02 17.5202 112.176 16.6436 112.176 15.1495C112.176 13.4562 110.502 12.5 108.47 12.5C107.195 12.5 105.781 12.8586 104.526 13.6554L104.028 12.4402C105.462 11.5836 107.036 11.2051 108.51 11.2051C111.299 11.2051 113.65 12.5996 113.65 14.9902C113.65 16.4843 112.773 17.5999 111.299 18.0581Z" fill="#282B40"/>
<path d="M98.8406 14.8701V16.1252H94.8762V25.3488H93.4618V16.1252H89.4974V14.8701H98.8406Z" fill="#282B40"/>
<path d="M84.1981 14.791C87.1864 14.791 89.4176 16.9425 89.4176 20.11C89.4176 23.2975 87.1864 25.449 84.1981 25.449C82.5247 25.449 81.0904 24.7318 80.2139 23.3772V29.2141H78.7994V14.8707H80.1541V16.9425C81.0107 15.548 82.465 14.791 84.1981 14.791ZM84.0985 24.1939C86.3098 24.1939 88.0031 22.5604 88.0031 20.11C88.0031 17.6796 86.3098 16.0261 84.0985 16.0261C81.8673 16.0261 80.1939 17.6796 80.1939 20.11C80.1939 22.5604 81.8673 24.1939 84.0985 24.1939Z" fill="#282B40"/>
<path d="M71.3884 14.791C74.0977 14.791 75.6317 16.1457 75.6317 18.855V25.3494H74.277V23.7158C73.6395 24.7916 72.4044 25.449 70.6712 25.449C68.3006 25.449 66.8463 24.2139 66.8463 22.401C66.8463 20.7874 67.8822 19.4327 70.8904 19.4327H74.2172V18.7952C74.2172 17.0023 73.2013 16.0261 71.249 16.0261C69.8943 16.0261 68.6193 16.5043 67.7627 17.2613L67.1252 16.2054C68.181 15.309 69.7349 14.791 71.3884 14.791ZM70.8904 24.3334C72.4841 24.3334 73.6594 23.5764 74.2172 22.2018V20.4885H70.9302C68.8982 20.4885 68.2408 21.2854 68.2408 22.3612C68.2408 23.5764 69.217 24.3334 70.8904 24.3334Z" fill="#282B40"/>
<path d="M63.0406 14.8701H64.3554V25.3488H63.0605V17.0615L58.8172 24.0738H58.1798L53.9365 17.0416V25.3488H52.6416V14.8701H54.0759L58.5184 22.4203L63.0406 14.8701Z" fill="#282B40"/>
<path d="M45.4137 25.4682C41.2302 25.4682 38.1224 22.4601 38.1224 18.3762C38.1224 14.2923 41.2302 11.2842 45.4336 11.2842C47.4656 11.2842 49.2984 11.9615 50.5335 13.3162L49.5972 14.2525C48.4617 13.097 47.0672 12.599 45.4734 12.599C42.1067 12.599 39.5767 15.0693 39.5767 18.3762C39.5767 21.6832 42.1067 24.1534 45.4734 24.1534C47.0672 24.1534 48.4617 23.6554 49.5972 22.48L50.5335 23.4163C49.2984 24.771 47.4656 25.4682 45.4137 25.4682Z" fill="#282B40"/>
<defs>
<linearGradient id="paint0_linear_2966_2165" x1="18.8558" y1="9.42798" x2="-1.85264e-07" y2="9.42814" gradientUnits="userSpaceOnUse">
<stop stop-color="#19AF44"/>
<stop offset="0.9" stop-color="#66FF92" stop-opacity="0"/>
</linearGradient>
<linearGradient id="paint1_linear_2966_2165" x1="8.57126" y1="6.66641" x2="21.9043" y2="19.9995" gradientUnits="userSpaceOnUse">
<stop offset="0.15" stop-color="white"/>
<stop offset="0.85" stop-color="white" stop-opacity="0"/>
</linearGradient>
<linearGradient id="paint2_linear_2966_2165" x1="21.7765" y1="19.3914" x2="8.57126" y2="6.66641" gradientUnits="userSpaceOnUse">
<stop offset="0.1" stop-color="#9000FF"/>
<stop offset="0.438863" stop-color="#9000FF"/>
<stop offset="1" stop-color="#44BCFF"/>
</linearGradient>
<linearGradient id="paint3_linear_2966_2165" x1="14.6037" y1="13.1419" x2="16.046" y2="27.0845" gradientUnits="userSpaceOnUse">
<stop stop-color="white" stop-opacity="0"/>
<stop offset="0.482027" stop-color="white"/>
<stop offset="1" stop-color="white" stop-opacity="0"/>
</linearGradient>
<linearGradient id="paint4_linear_2966_2165" x1="7.19291" y1="12.1803" x2="22.845" y2="28.5777" gradientUnits="userSpaceOnUse">
<stop stop-color="#69EAD6" stop-opacity="0"/>
<stop offset="0.297561" stop-color="#54DAAD" stop-opacity="0.6"/>
<stop offset="0.699014" stop-color="#37C476" stop-opacity="0.6"/>
<stop offset="1" stop-color="#22B44C" stop-opacity="0"/>
</linearGradient>
</defs>
</svg>
