<svg width="43" height="12" viewBox="0 0 43 12" fill="none" xmlns="http://www.w3.org/2000/svg">
<path d="M0 0.00195281H4.03402C4.40074 0.00195281 5.50093 -0.123027 5.9899 1.62669C6.35663 2.75151 6.8456 4.50122 7.57906 7.12579H7.82355C8.557 4.37624 9.16822 2.50155 9.4127 1.62669C9.90168 -0.123027 11.1241 0.00195281 11.6131 0.00195281H15.4026V12H11.4908V4.87616H11.2463L9.16822 12H6.23439L4.15626 4.87616H3.78953V12H0M16.9918 0.00195281H20.9035V7.12579H21.2703L23.8374 1.25175C24.3263 0.126932 25.4265 0.00195281 25.4265 0.00195281H29.0938V12H25.182V4.87616H24.9376L22.3705 10.7502C21.8815 11.875 20.6591 12 20.6591 12H16.9918M34.3503 8.37559V12H30.683V5.75102H42.6628C42.1738 7.25077 40.4624 8.37559 38.5065 8.37559" fill="#0F754E"/>
<path d="M42.9063 4.99919C43.3952 2.74955 41.9283 0 38.75 0H30.4375C30.682 2.62457 32.8824 4.99919 35.205 4.99919" fill="url(#paint0_linear_3286_13526)"/>
<defs>
<linearGradient id="paint0_linear_3286_13526" x1="41.4394" y1="-1.62474" x2="31.6599" y2="-1.62474" gradientUnits="userSpaceOnUse">
<stop stop-color="#1F5CD7"/>
<stop offset="1" stop-color="#02AEFF"/>
</linearGradient>
</defs>
</svg>
