<svg width="19.199982" height="19.647461" viewBox="0 0 19.2 19.6475" fill="none" xmlns="http://www.w3.org/2000/svg" xmlns:xlink="http://www.w3.org/1999/xlink">
	<desc>
			Created with Pixso.
	</desc>
	<defs/>
	<path id="Icon" d="M9.59999 0C7.09834 2.23926 3.80924 3.61621 0.199326 3.66504C0.0682373 4.44629 0 5.24805 0 6.06641C0 12.3369 4.00708 17.6709 9.59999 19.6475C15.1929 17.6709 19.2 12.3369 19.2 6.06641C19.2 5.24805 19.1317 4.44629 19.0007 3.66504C15.3907 3.61621 12.1017 2.23926 9.59999 0ZM14.0485 8.11523L9.24853 12.915Q8.89706 13.2666 8.39999 13.2666Q7.90294 13.2666 7.55147 12.915L5.15147 10.5146C4.6763 10.04 4.6763 9.29297 5.15147 8.81836C5.62665 8.34277 6.37335 8.34277 6.84853 8.81836L8.4 10.3691L12.3515 6.41797C12.8266 5.94336 13.5733 5.94336 14.0485 6.41797C14.5237 6.89355 14.5237 7.63965 14.0485 8.11523Z" clip-rule="evenodd" fill="#0A2915" fill-opacity="1.000000" fill-rule="evenodd"/>
</svg>
