<svg width="8.399902" height="9.599609" viewBox="0 0 8.3999 9.59961" fill="none" xmlns="http://www.w3.org/2000/svg" xmlns:xlink="http://www.w3.org/1999/xlink">
	<desc>
			Created with Pixso.
	</desc>
	<defs/>
	<path id="Icon" d="M3.6 0C3.37 0 3.16 0.12 3.06 0.33L2.62 1.2L0.6 1.2C0.26 1.2 0 1.46 0 1.79C0 2.13 0.26 2.4 0.6 2.4L0.6 8.4C0.6 9.06 1.13 9.59 1.8 9.59L6.6 9.59C7.26 9.59 7.8 9.06 7.8 8.4L7.8 2.4C8.13 2.4 8.39 2.13 8.39 1.79C8.39 1.46 8.13 1.2 7.8 1.2L5.77 1.2L5.33 0.33C5.23 0.12 5.02 0 4.8 0L3.6 0ZM2.39 3.59C2.39 3.26 2.66 3 3 3C3.33 3 3.6 3.26 3.6 3.59L3.6 7.2C3.6 7.53 3.33 7.79 3 7.79C2.66 7.79 2.39 7.53 2.39 7.2L2.39 3.59ZM5.39 3C5.06 3 4.8 3.26 4.8 3.59L4.8 7.2C4.8 7.53 5.06 7.79 5.39 7.79C5.73 7.79 6 7.53 6 7.2L6 3.59C6 3.26 5.73 3 5.39 3Z" fill="#111827" fill-opacity="1.000000" fill-rule="evenodd"/>
</svg>
