<svg width="37" height="12" viewBox="0 0 37 12" fill="none" xmlns="http://www.w3.org/2000/svg">
<path fill-rule="evenodd" clip-rule="evenodd" d="M9.13182 11.9079H5.97074L3.60032 2.59861C3.48781 2.17038 3.24892 1.79181 2.89752 1.61338C2.02056 1.16498 1.0542 0.808129 0 0.62815V0.269744H5.09224C5.79504 0.269744 6.32214 0.808129 6.41 1.4334L7.6399 8.14848L10.7994 0.269744H13.8727L9.13182 11.9079ZM15.6182 11.9077H12.6328L15.0911 0.269531H18.0765L15.6182 11.9077ZM21.9441 3.49252C22.032 2.8657 22.5591 2.50729 23.174 2.50729C24.1404 2.4173 25.193 2.59728 26.0716 3.04413L26.5987 0.538385C25.7201 0.179979 24.7538 0 23.8768 0C20.9793 0 18.8709 1.61205 18.8709 3.84938C18.8709 5.55142 20.3644 6.44511 21.4186 6.9835C22.5591 7.52033 22.9983 7.87874 22.9105 8.41557C22.9105 9.22082 22.032 9.57923 21.155 9.57923C20.1008 9.57923 19.0466 9.31081 18.0818 8.86241L17.5547 11.3697C18.6089 11.8166 19.7494 11.9965 20.8036 11.9965C24.0525 12.085 26.0716 10.4745 26.0716 8.05716C26.0716 5.01304 21.9441 4.83461 21.9441 3.49252ZM36.5281 11.9077L34.1576 0.269531H31.6115C31.0844 0.269531 30.5573 0.627938 30.3816 1.16477L25.9922 11.9077H29.0654L29.6788 10.2072H33.4548L33.8062 11.9077H36.5281ZM32.0422 3.40234L32.9192 7.78856H30.4609L32.0422 3.40234Z" fill="#172B85"/>
</svg>
